# xmcd
#
# Track frame offsets:
#       150
#       18338
#       37995
#       62201
#       83715
#       105753
#       124333
#       140975
#       165728
#       179500
#
# Disc length: 2564 seconds
#
# Revision: 1
# Processed by: cddbd v1.5.1PL2 Copyright (c) Steve Scherf et al.
# Submitted via: MusiCat 1.1
#
DISCID=830a020a
DTITLE=Danny Cowan Group - Do That Voodoo
DYEAR=1900
DGENRE=
TTITLE0=DO THAT VOODOO (ACOUSTIC SLIDE)
TTITLE1=FURTHER ON UP THAT ROAD
TTITLE2=ROAD OF NO RETURN
TTITLE3=BRING IT HOME TO MAMA
TTITLE4=NIGHTS IN WHITE SATIN
TTITLE5=WIPE YOU FROM MY MIND
TTITLE6=HOW LONG WILL IT LAST
TTITLE7=BLUES DRAGON (WITH LUIGI YAMAGATA)
TTITLE8=YOU TAKE THE HONEY (ELECTRIC)
TTITLE9=BACK PORCH BLUES
EXTD=\n\n
EXTT0=
EXTT1=
EXTT2=
EXTT3=
EXTT4=
EXTT5=
EXTT6=
EXTT7=
EXTT8=
EXTT9=
PLAYORDER=
